<?xml version="1.0" encoding="UTF-8"?>
<svg id="Layer_2" data-name="Layer 2" xmlns="http://www.w3.org/2000/svg" viewBox="0 0 118.89 81.64">
  <defs>
    <style>
      .cls-1 {
        fill: #b4e6ff;
      }
    </style>
  </defs>
  <g id="Layer_1-2" data-name="Layer 1">
    <path class="cls-1" d="m105.03,63.08V9.36c0-.93-.76-1.68-1.7-1.68H15.97c-.94,0-1.7.75-1.7,1.68v53.72c0,.93.76,1.68,1.7,1.68h87.36c.94,0,1.7-.75,1.7-1.68Z"/>
    <path d="m106.24,64.33V8.47c0-.97-.78-1.75-1.75-1.75H14.39c-.97,0-1.75.78-1.75,1.75v55.86c0,.97.78,1.75,1.75,1.75h90.1c.97,0,1.75-.78,1.75-1.75Zm-3.5-1.75H16.14V10.22h86.6v52.36Z"/>
    <path d="m117.14,69.31h-4.17V6.25c0-3.45-2.8-6.25-6.25-6.25H12.17c-3.45,0-6.25,2.8-6.25,6.25v63.05H1.75c-.97,0-1.75.78-1.75,1.75v4.33c0,3.45,2.8,6.25,6.25,6.25h106.39c3.45,0,6.25-2.8,6.25-6.25v-4.33c0-.97-.78-1.75-1.75-1.75ZM9.42,6.25c0-1.52,1.23-2.75,2.75-2.75h94.55c1.52,0,2.75,1.23,2.75,2.75v63.05h-36.88c-.97,0-1.75.78-1.75,1.75v.93h-22.79v-.93c0-.97-.78-1.75-1.75-1.75H9.42V6.25Zm105.97,69.13c0,1.52-1.23,2.75-2.75,2.75H6.25c-1.52,0-2.75-1.23-2.75-2.75v-2.58h41.05v.93c0,.97.78,1.75,1.75,1.75h26.29c.97,0,1.75-.78,1.75-1.75v-.93h41.05v2.58Z"/>
    <g>
      <path d="m37.77,41.56c-1.99,3.24-5.78,5.75-9.67,6.39-.68.14-1.39.2-1.99.2-6.12,0-7.03-5.54-7.03-8.82,0-9.5,2.1-13.55,8.25-16.09,1.66-.64,4.09-1.45,6.32-1.45,1.82,0,3.18.57,3.92,1.69.58.85.68,1.93.27,3.04-.84,2.53-3.99,4.9-8.35,6.35l-2.6.71c-.24.07-.37.34-.3.57.07.27.34.41.58.34l2.57-.68c1.59-.37,3.04-.54,4.29-.54,2.67,0,4.29.81,4.8,2.43.54,1.76.17,3.82-1.05,5.85Zm-10.14-3.08c.03-.27-.17-.51-.44-.54s-.51.17-.54.44l-.64,5.54c-.03.24.17.51.44.54h.03c.27,0,.47-.2.51-.44l.64-5.54Zm2.16-13.66c.03-.27-.17-.51-.41-.54-.27-.03-.54.17-.57.44l-.64,5.54c-.03.27.17.51.44.54h.07c.24,0,.44-.2.47-.44l.64-5.54Z"/>
      <path d="m60.82,41.83c-.1,3.79-3.24,6.32-7.84,6.32-2.4,0-4.94-.71-7.27-2.1-4.77-2.77-7.2-12.3-6.19-19,.34-2.26,1.42-6.15,4.73-6.93.81-.17,1.59-.27,2.3-.27,1.83,0,3.18.61,4.12,1.89,3.65,4.9,0,17.37-.03,17.51-.07.24.07.51.27.61.24.1.51,0,.64-.2,1.66-2.7,3.52-4.19,5.24-4.19.84,0,1.62.34,2.3,1.01,1.12,1.18,1.76,3.14,1.72,5.34Z"/>
      <path d="m74.24,44.81c-1.79,2.23-3.68,3.35-5.68,3.35-1.12,0-2.23-.37-3.35-1.05-3.89-2.4-3.72-6.96-2.87-10.34,1.76-7.2,7.98-15.11,12.13-15.41h.14c.84,0,3.75.34,4.77,4.87.95,4.46-1.08,13.55-5.14,18.59Zm-2.3-11.86c.03-.27-.17-.54-.44-.57s-.51.17-.54.44l-.64,5.61c-.03.27.14.51.41.54h.07c.24,0,.47-.17.51-.44l.64-5.58Z"/>
      <path d="m98.95,34.47c-2.09-1.28-5.1-1.49-8.62-.64-.51-2.91.34-6.35.37-6.42.07-.24-.1-.51-.37-.57-.24-.07-.51.07-.58.34l-2.37,7.57c-.2.07-.44.17-.64.24-2.5,1.01-3.92,2.77-3.89,4.87.03,1.79,1.22,3.45,2.97,4.09,1.12.41,4.12.95,7.54-2.97.2-.2.17-.51-.03-.71-.2-.17-.51-.14-.71.07-2.13,2.43-4.5,3.41-6.46,2.67-1.35-.47-2.3-1.76-2.3-3.18-.03-1.62,1.15-3.08,3.24-3.92.84-.34,1.69-.61,2.5-.84.17.57.41,1.12.71,1.62.74,1.08,1.76,1.76,3.08,1.99,1.72.27,3.24-.17,4.56-1.32.47-.41.88-.88,1.25-1.42.03,0,.07.03.07.07,1.49,1.39,1.93,3.52,1.15,5.88-.95,2.87-4.77,5.37-9.36,6.08-4.16.68-7.67-.4-9.43-2.84-1.99-2.77-2.5-6.46-1.45-10.31,1.05-3.82,3.52-7.57,6.96-10.58,2.16-1.89,4.5-2.87,6.76-2.87,1.01,0,2.03.2,3.01.64,2.16.91,3.75,2.84,3.82,4.66.1,2.1-.44,5.37-1.79,7.81Zm-1.66,2.13c-1.05.95-2.3,1.32-3.72,1.08-1.05-.2-1.83-.71-2.4-1.55-.27-.41-.47-.85-.61-1.35,3.24-.74,6.02-.58,7.87.54-.34.51-.71.95-1.15,1.28Z"/>
    </g>
  </g>
</svg>